<?xml version="1.0" standalone="no"?>
<!DOCTYPE svg PUBLIC "-//W3C//DTD SVG 20010904//EN"
 "http://www.w3.org/TR/2001/REC-SVG-20010904/DTD/svg10.dtd">
<svg version="1.0" xmlns="http://www.w3.org/2000/svg"
 width="1280.000000pt" height="1230.000000pt" viewBox="0 0 1280.000000 1230.000000"
 preserveAspectRatio="xMidYMid meet">
<metadata>
Created by potrace 1.15, written by Peter Selinger 2001-2017
</metadata>
<g transform="translate(0.000000,1230.000000) scale(0.100000,-0.100000)"
fill="#000000" stroke="none">
<path d="M5975 12289 c-923 -51 -1707 -240 -2368 -570 -404 -202 -755 -447
-1017 -709 -131 -130 -185 -219 -220 -356 -26 -101 -26 -261 0 -359 l18 -70
-72 -115 c-242 -384 -407 -772 -520 -1225 -183 -733 -186 -1593 -9 -2413 19
-90 33 -165 31 -166 -1 -1 -37 -21 -78 -43 -281 -149 -571 -371 -809 -618
-812 -846 -1119 -2039 -815 -3175 150 -559 451 -1078 867 -1492 530 -528 1208
-860 1947 -953 166 -21 500 -30 623 -17 170 18 289 95 360 229 63 120 62 103
7 907 -27 396 -72 1051 -100 1454 -27 402 -72 1059 -100 1460 -27 400 -72
1060 -100 1467 -27 407 -55 765 -61 795 -26 126 -121 244 -246 303 -67 31 -71
32 -208 31 -105 0 -179 -7 -298 -28 -87 -15 -160 -26 -161 -24 -5 5 -55 278
-71 383 -59 406 -61 930 -5 1325 66 467 223 920 444 1283 99 163 96 160 179
173 147 23 262 84 410 217 317 285 650 475 1092 623 503 168 1033 244 1705
244 672 0 1202 -76 1705 -244 442 -148 775 -338 1092 -623 149 -133 263 -194
411 -217 l73 -11 58 -88 c240 -362 421 -861 491 -1357 56 -395 54 -920 -5
-1325 -25 -169 -68 -385 -77 -385 -5 0 -75 11 -156 26 -203 35 -369 42 -446
20 -149 -44 -272 -173 -304 -321 -6 -27 -20 -185 -32 -350 -20 -309 -90 -1329
-160 -2350 -22 -319 -67 -976 -100 -1460 -33 -484 -74 -1074 -90 -1311 -33
-473 -32 -499 18 -604 37 -77 126 -164 206 -201 87 -41 206 -53 461 -45 506
14 941 121 1390 342 1295 636 2038 2047 1830 3474 -146 994 -732 1866 -1605
2387 -47 28 -106 61 -132 74 -27 13 -48 28 -48 33 0 6 9 47 19 91 149 622 185
1385 95 2020 -89 625 -302 1208 -624 1710 l-58 90 18 70 c26 98 26 258 0 359
-35 139 -89 226 -219 356 -421 419 -1066 790 -1736 997 -520 161 -1035 248
-1675 283 -208 11 -614 11 -825 -1z"/>
<path d="M4220 6373 c-113 -24 -239 -126 -291 -237 -49 -104 -50 -134 -23
-526 13 -195 46 -683 74 -1085 133 -1950 174 -2541 215 -3150 24 -363 49 -688
54 -721 24 -161 141 -295 299 -344 202 -63 427 35 516 224 47 99 49 143 27
466 -12 162 -43 625 -71 1028 -27 402 -72 1061 -100 1462 -58 848 -145 2126
-160 2350 -6 85 -16 178 -22 205 -26 124 -124 242 -246 297 -56 26 -82 31
-157 34 -49 1 -101 0 -115 -3z"/>
<path d="M8358 6361 c-80 -26 -136 -61 -190 -119 -88 -94 -112 -169 -127 -397
-6 -88 -33 -488 -61 -890 -112 -1643 -173 -2535 -231 -3365 -66 -955 -66 -944
-13 -1056 89 -189 314 -287 516 -224 158 49 275 183 299 344 5 33 30 360 54
726 25 366 68 992 95 1393 107 1558 152 2211 184 2692 25 358 32 515 26 554
-23 136 -122 266 -247 323 -89 40 -217 49 -305 19z"/>
</g>
</svg>
